%TF.GenerationSoftware,KiCad,Pcbnew,9.0.0*%
%TF.CreationDate,2025-05-11T09:44:17-05:00*%
%TF.ProjectId,Watch Winder,57617463-6820-4576-996e-6465722e6b69,rev?*%
%TF.SameCoordinates,Original*%
%TF.FileFunction,Copper,L1,Top*%
%TF.FilePolarity,Positive*%
%FSLAX46Y46*%
G04 Gerber Fmt 4.6, Leading zero omitted, Abs format (unit mm)*
G04 Created by KiCad (PCBNEW 9.0.0) date 2025-05-11 09:44:17*
%MOMM*%
%LPD*%
G01*
G04 APERTURE LIST*
G04 Aperture macros list*
%AMRoundRect*
0 Rectangle with rounded corners*
0 $1 Rounding radius*
0 $2 $3 $4 $5 $6 $7 $8 $9 X,Y pos of 4 corners*
0 Add a 4 corners polygon primitive as box body*
4,1,4,$2,$3,$4,$5,$6,$7,$8,$9,$2,$3,0*
0 Add four circle primitives for the rounded corners*
1,1,$1+$1,$2,$3*
1,1,$1+$1,$4,$5*
1,1,$1+$1,$6,$7*
1,1,$1+$1,$8,$9*
0 Add four rect primitives between the rounded corners*
20,1,$1+$1,$2,$3,$4,$5,0*
20,1,$1+$1,$4,$5,$6,$7,0*
20,1,$1+$1,$6,$7,$8,$9,0*
20,1,$1+$1,$8,$9,$2,$3,0*%
G04 Aperture macros list end*
%ADD10C,0.300000*%
%TA.AperFunction,NonConductor*%
%ADD11C,0.300000*%
%TD*%
%TA.AperFunction,ComponentPad*%
%ADD12RoundRect,0.250000X-0.725000X0.600000X-0.725000X-0.600000X0.725000X-0.600000X0.725000X0.600000X0*%
%TD*%
%TA.AperFunction,ComponentPad*%
%ADD13O,1.950000X1.700000*%
%TD*%
%TA.AperFunction,ComponentPad*%
%ADD14R,1.600000X1.600000*%
%TD*%
%TA.AperFunction,ComponentPad*%
%ADD15C,1.600000*%
%TD*%
%TA.AperFunction,ComponentPad*%
%ADD16C,2.000000*%
%TD*%
%TA.AperFunction,ComponentPad*%
%ADD17O,1.600000X1.600000*%
%TD*%
%TA.AperFunction,ComponentPad*%
%ADD18RoundRect,0.250000X-0.750000X0.600000X-0.750000X-0.600000X0.750000X-0.600000X0.750000X0.600000X0*%
%TD*%
%TA.AperFunction,ComponentPad*%
%ADD19O,2.000000X1.700000*%
%TD*%
%TA.AperFunction,ComponentPad*%
%ADD20RoundRect,0.250000X-0.600000X-0.725000X0.600000X-0.725000X0.600000X0.725000X-0.600000X0.725000X0*%
%TD*%
%TA.AperFunction,ComponentPad*%
%ADD21O,1.700000X1.950000*%
%TD*%
%TA.AperFunction,ComponentPad*%
%ADD22RoundRect,0.250000X0.750000X-0.600000X0.750000X0.600000X-0.750000X0.600000X-0.750000X-0.600000X0*%
%TD*%
%TA.AperFunction,Conductor*%
%ADD23C,1.000000*%
%TD*%
%TA.AperFunction,Conductor*%
%ADD24C,0.500000*%
%TD*%
G04 APERTURE END LIST*
D10*
D11*
X109068082Y-62509638D02*
X109544272Y-64509638D01*
X109544272Y-64509638D02*
X109925225Y-63081066D01*
X109925225Y-63081066D02*
X110306177Y-64509638D01*
X110306177Y-64509638D02*
X110782368Y-62509638D01*
X111353796Y-62509638D02*
X111829986Y-64509638D01*
X111829986Y-64509638D02*
X112210939Y-63081066D01*
X112210939Y-63081066D02*
X112591891Y-64509638D01*
X112591891Y-64509638D02*
X113068082Y-62509638D01*
X114972843Y-64319161D02*
X114877605Y-64414400D01*
X114877605Y-64414400D02*
X114591891Y-64509638D01*
X114591891Y-64509638D02*
X114401415Y-64509638D01*
X114401415Y-64509638D02*
X114115700Y-64414400D01*
X114115700Y-64414400D02*
X113925224Y-64223923D01*
X113925224Y-64223923D02*
X113829986Y-64033447D01*
X113829986Y-64033447D02*
X113734748Y-63652495D01*
X113734748Y-63652495D02*
X113734748Y-63366780D01*
X113734748Y-63366780D02*
X113829986Y-62985828D01*
X113829986Y-62985828D02*
X113925224Y-62795352D01*
X113925224Y-62795352D02*
X114115700Y-62604876D01*
X114115700Y-62604876D02*
X114401415Y-62509638D01*
X114401415Y-62509638D02*
X114591891Y-62509638D01*
X114591891Y-62509638D02*
X114877605Y-62604876D01*
X114877605Y-62604876D02*
X114972843Y-62700114D01*
X116972843Y-64509638D02*
X116306176Y-63557257D01*
X115829986Y-64509638D02*
X115829986Y-62509638D01*
X115829986Y-62509638D02*
X116591891Y-62509638D01*
X116591891Y-62509638D02*
X116782367Y-62604876D01*
X116782367Y-62604876D02*
X116877605Y-62700114D01*
X116877605Y-62700114D02*
X116972843Y-62890590D01*
X116972843Y-62890590D02*
X116972843Y-63176304D01*
X116972843Y-63176304D02*
X116877605Y-63366780D01*
X116877605Y-63366780D02*
X116782367Y-63462019D01*
X116782367Y-63462019D02*
X116591891Y-63557257D01*
X116591891Y-63557257D02*
X115829986Y-63557257D01*
X118210938Y-62509638D02*
X118591891Y-62509638D01*
X118591891Y-62509638D02*
X118782367Y-62604876D01*
X118782367Y-62604876D02*
X118972843Y-62795352D01*
X118972843Y-62795352D02*
X119068081Y-63176304D01*
X119068081Y-63176304D02*
X119068081Y-63842971D01*
X119068081Y-63842971D02*
X118972843Y-64223923D01*
X118972843Y-64223923D02*
X118782367Y-64414400D01*
X118782367Y-64414400D02*
X118591891Y-64509638D01*
X118591891Y-64509638D02*
X118210938Y-64509638D01*
X118210938Y-64509638D02*
X118020462Y-64414400D01*
X118020462Y-64414400D02*
X117829986Y-64223923D01*
X117829986Y-64223923D02*
X117734748Y-63842971D01*
X117734748Y-63842971D02*
X117734748Y-63176304D01*
X117734748Y-63176304D02*
X117829986Y-62795352D01*
X117829986Y-62795352D02*
X118020462Y-62604876D01*
X118020462Y-62604876D02*
X118210938Y-62509638D01*
X119829986Y-64414400D02*
X120115700Y-64509638D01*
X120115700Y-64509638D02*
X120591891Y-64509638D01*
X120591891Y-64509638D02*
X120782367Y-64414400D01*
X120782367Y-64414400D02*
X120877605Y-64319161D01*
X120877605Y-64319161D02*
X120972843Y-64128685D01*
X120972843Y-64128685D02*
X120972843Y-63938209D01*
X120972843Y-63938209D02*
X120877605Y-63747733D01*
X120877605Y-63747733D02*
X120782367Y-63652495D01*
X120782367Y-63652495D02*
X120591891Y-63557257D01*
X120591891Y-63557257D02*
X120210938Y-63462019D01*
X120210938Y-63462019D02*
X120020462Y-63366780D01*
X120020462Y-63366780D02*
X119925224Y-63271542D01*
X119925224Y-63271542D02*
X119829986Y-63081066D01*
X119829986Y-63081066D02*
X119829986Y-62890590D01*
X119829986Y-62890590D02*
X119925224Y-62700114D01*
X119925224Y-62700114D02*
X120020462Y-62604876D01*
X120020462Y-62604876D02*
X120210938Y-62509638D01*
X120210938Y-62509638D02*
X120687129Y-62509638D01*
X120687129Y-62509638D02*
X120972843Y-62604876D01*
X121734748Y-64414400D02*
X122020462Y-64509638D01*
X122020462Y-64509638D02*
X122496653Y-64509638D01*
X122496653Y-64509638D02*
X122687129Y-64414400D01*
X122687129Y-64414400D02*
X122782367Y-64319161D01*
X122782367Y-64319161D02*
X122877605Y-64128685D01*
X122877605Y-64128685D02*
X122877605Y-63938209D01*
X122877605Y-63938209D02*
X122782367Y-63747733D01*
X122782367Y-63747733D02*
X122687129Y-63652495D01*
X122687129Y-63652495D02*
X122496653Y-63557257D01*
X122496653Y-63557257D02*
X122115700Y-63462019D01*
X122115700Y-63462019D02*
X121925224Y-63366780D01*
X121925224Y-63366780D02*
X121829986Y-63271542D01*
X121829986Y-63271542D02*
X121734748Y-63081066D01*
X121734748Y-63081066D02*
X121734748Y-62890590D01*
X121734748Y-62890590D02*
X121829986Y-62700114D01*
X121829986Y-62700114D02*
X121925224Y-62604876D01*
X121925224Y-62604876D02*
X122115700Y-62509638D01*
X122115700Y-62509638D02*
X122591891Y-62509638D01*
X122591891Y-62509638D02*
X122877605Y-62604876D01*
X124972844Y-62509638D02*
X125639510Y-64509638D01*
X125639510Y-64509638D02*
X126306177Y-62509638D01*
X128020463Y-64509638D02*
X126877606Y-64509638D01*
X127449034Y-64509638D02*
X127449034Y-62509638D01*
X127449034Y-62509638D02*
X127258558Y-62795352D01*
X127258558Y-62795352D02*
X127068082Y-62985828D01*
X127068082Y-62985828D02*
X126877606Y-63081066D01*
X128877606Y-64319161D02*
X128972844Y-64414400D01*
X128972844Y-64414400D02*
X128877606Y-64509638D01*
X128877606Y-64509638D02*
X128782368Y-64414400D01*
X128782368Y-64414400D02*
X128877606Y-64319161D01*
X128877606Y-64319161D02*
X128877606Y-64509638D01*
X129639511Y-62509638D02*
X130877606Y-62509638D01*
X130877606Y-62509638D02*
X130210939Y-63271542D01*
X130210939Y-63271542D02*
X130496654Y-63271542D01*
X130496654Y-63271542D02*
X130687130Y-63366780D01*
X130687130Y-63366780D02*
X130782368Y-63462019D01*
X130782368Y-63462019D02*
X130877606Y-63652495D01*
X130877606Y-63652495D02*
X130877606Y-64128685D01*
X130877606Y-64128685D02*
X130782368Y-64319161D01*
X130782368Y-64319161D02*
X130687130Y-64414400D01*
X130687130Y-64414400D02*
X130496654Y-64509638D01*
X130496654Y-64509638D02*
X129925225Y-64509638D01*
X129925225Y-64509638D02*
X129734749Y-64414400D01*
X129734749Y-64414400D02*
X129639511Y-64319161D01*
D12*
%TO.P,J4,1,Pin_1*%
%TO.N,Net-(J4-Pin_1)*%
X148590000Y-69850000D03*
D13*
%TO.P,J4,2,Pin_2*%
%TO.N,Net-(J4-Pin_2)*%
X148590000Y-72350000D03*
%TO.P,J4,3,Pin_3*%
%TO.N,Net-(J4-Pin_3)*%
X148590000Y-74850000D03*
%TO.P,J4,4,Pin_4*%
%TO.N,Net-(J4-Pin_4)*%
X148590000Y-77350000D03*
%TD*%
D14*
%TO.P,C2,1*%
%TO.N,Net-(J3-Pin_1)*%
X123190000Y-79500000D03*
D15*
%TO.P,C2,2*%
%TO.N,Net-(J1-Pin_1)*%
X123190000Y-83000000D03*
%TD*%
D16*
%TO.P,U3,1,EN*%
%TO.N,Net-(U2-A0)*%
X154940000Y-79375000D03*
%TO.P,U3,2,MS1*%
%TO.N,Net-(U2-A1)*%
X157480000Y-79375000D03*
%TO.P,U3,3,MS2*%
%TO.N,Net-(U2-A2)*%
X160020000Y-79375000D03*
%TO.P,U3,4,PDN*%
%TO.N,Net-(U2-A3)*%
X162560000Y-79375000D03*
%TO.P,U3,5,STDBY*%
%TO.N,Net-(U3-STDBY)*%
X165100000Y-79375000D03*
%TO.P,U3,6,CLK*%
%TO.N,Net-(U3-CLK)*%
X167640000Y-79375000D03*
%TO.P,U3,7,STEP*%
%TO.N,Net-(U2-A4)*%
X170180000Y-79375000D03*
%TO.P,U3,8,DIR*%
%TO.N,Net-(U2-A5)*%
X172720000Y-79375000D03*
%TO.P,U3,9,GNDIO*%
%TO.N,Net-(J1-Pin_1)*%
X172720000Y-66675000D03*
%TO.P,U3,10,VIO*%
%TO.N,Net-(J3-Pin_1)*%
X170180000Y-66675000D03*
%TO.P,U3,11,B2*%
%TO.N,Net-(J4-Pin_4)*%
X167640000Y-66675000D03*
%TO.P,U3,12,B1*%
%TO.N,Net-(J4-Pin_3)*%
X165100000Y-66675000D03*
%TO.P,U3,13,A1*%
%TO.N,Net-(J4-Pin_2)*%
X162560000Y-66675000D03*
%TO.P,U3,14,A2*%
%TO.N,Net-(J4-Pin_1)*%
X160020000Y-66675000D03*
%TO.P,U3,15,GNDM*%
%TO.N,Net-(J1-Pin_1)*%
X157480000Y-66675000D03*
%TO.P,U3,16,VM*%
%TO.N,Net-(J1-Pin_2)*%
X154940000Y-66675000D03*
%TD*%
D15*
%TO.P,R3,1*%
%TO.N,Net-(U3-STDBY)*%
X178435000Y-76835000D03*
D17*
%TO.P,R3,2*%
%TO.N,Net-(J3-Pin_1)*%
X178435000Y-69215000D03*
%TD*%
D18*
%TO.P,J1,1,Pin_1*%
%TO.N,Net-(J1-Pin_1)*%
X110490000Y-69850000D03*
D19*
%TO.P,J1,2,Pin_2*%
%TO.N,Net-(J1-Pin_2)*%
X110490000Y-72350000D03*
%TD*%
D16*
%TO.P,U2,1,RST*%
%TO.N,unconnected-(U2-RST-Pad1)*%
X147655000Y-83320000D03*
%TO.P,U2,2,3.3V*%
%TO.N,unconnected-(U2-3.3V-Pad2)*%
X150195000Y-83320000D03*
%TO.P,U2,3,3.3V*%
%TO.N,Net-(R1-Pad1)*%
X152735000Y-83320000D03*
%TO.P,U2,4,GND*%
%TO.N,Net-(J1-Pin_1)*%
X155275000Y-83320000D03*
%TO.P,U2,5,A0*%
%TO.N,Net-(U2-A0)*%
X157815000Y-83320000D03*
%TO.P,U2,6,A1*%
%TO.N,Net-(U2-A1)*%
X160355000Y-83320000D03*
%TO.P,U2,7,A2*%
%TO.N,Net-(U2-A2)*%
X162895000Y-83320000D03*
%TO.P,U2,8,A3*%
%TO.N,Net-(U2-A3)*%
X165435000Y-83320000D03*
%TO.P,U2,9,A4*%
%TO.N,Net-(U2-A4)*%
X167975000Y-83320000D03*
%TO.P,U2,10,A5*%
%TO.N,Net-(U2-A5)*%
X170515000Y-83320000D03*
%TO.P,U2,11,SCK*%
%TO.N,unconnected-(U2-SCK-Pad11)*%
X173055000Y-83320000D03*
%TO.P,U2,12,MOSI*%
%TO.N,unconnected-(U2-MOSI-Pad12)*%
X175595000Y-83320000D03*
%TO.P,U2,13,MISO*%
%TO.N,unconnected-(U2-MISO-Pad13)*%
X178135000Y-83320000D03*
%TO.P,U2,14,RX*%
%TO.N,unconnected-(U2-RX-Pad14)*%
X180675000Y-83320000D03*
%TO.P,U2,15,TX*%
%TO.N,unconnected-(U2-TX-Pad15)*%
X183215000Y-83320000D03*
%TO.P,U2,16,TXD0*%
%TO.N,unconnected-(U2-TXD0-Pad16)*%
X185755000Y-83320000D03*
%TO.P,U2,17,SDA*%
%TO.N,unconnected-(U2-SDA-Pad17)*%
X185755000Y-63000000D03*
%TO.P,U2,18,SCL*%
%TO.N,unconnected-(U2-SCL-Pad18)*%
X183215000Y-63000000D03*
%TO.P,U2,19,D5*%
%TO.N,unconnected-(U2-D5-Pad19)*%
X180675000Y-63000000D03*
%TO.P,U2,20,D6*%
%TO.N,unconnected-(U2-D6-Pad20)*%
X178135000Y-63000000D03*
%TO.P,U2,21,D9*%
%TO.N,Net-(J2-Pin_4)*%
X175595000Y-63000000D03*
%TO.P,U2,22,D10*%
%TO.N,unconnected-(U2-D10-Pad22)*%
X173055000Y-63000000D03*
%TO.P,U2,23,D11*%
%TO.N,unconnected-(U2-D11-Pad23)*%
X170515000Y-63000000D03*
%TO.P,U2,24,D12*%
%TO.N,unconnected-(U2-D12-Pad24)*%
X167975000Y-63000000D03*
%TO.P,U2,25,D13*%
%TO.N,unconnected-(U2-D13-Pad25)*%
X165435000Y-63000000D03*
%TO.P,U2,26,VBUS*%
%TO.N,unconnected-(U2-VBUS-Pad26)*%
X162895000Y-63000000D03*
%TO.P,U2,27,EN*%
%TO.N,unconnected-(U2-EN-Pad27)*%
X160355000Y-63000000D03*
%TO.P,U2,28,VBAT*%
%TO.N,unconnected-(U2-VBAT-Pad28)*%
X157815000Y-63000000D03*
%TD*%
D14*
%TO.P,C1,1*%
%TO.N,Net-(J1-Pin_2)*%
X114300000Y-79500000D03*
D15*
%TO.P,C1,2*%
%TO.N,Net-(J1-Pin_1)*%
X114300000Y-83000000D03*
%TD*%
%TO.P,R4,1*%
%TO.N,Net-(U3-CLK)*%
X182880000Y-76835000D03*
D17*
%TO.P,R4,2*%
%TO.N,Net-(J3-Pin_1)*%
X182880000Y-69215000D03*
%TD*%
D20*
%TO.P,J2,1,Pin_1*%
%TO.N,Net-(J2-Pin_1)*%
X130500000Y-83000000D03*
D21*
%TO.P,J2,2,Pin_2*%
%TO.N,Net-(J1-Pin_1)*%
X133000000Y-83000000D03*
%TO.P,J2,3,Pin_3*%
X135500000Y-83000000D03*
%TO.P,J2,4,Pin_4*%
%TO.N,Net-(J2-Pin_4)*%
X138000000Y-83000000D03*
%TD*%
D15*
%TO.P,R1,1*%
%TO.N,Net-(R1-Pad1)*%
X143510000Y-78105000D03*
D17*
%TO.P,R1,2*%
%TO.N,Net-(J2-Pin_4)*%
X135890000Y-78105000D03*
%TD*%
D15*
%TO.P,R2,1*%
%TO.N,Net-(R1-Pad1)*%
X143510000Y-74930000D03*
D17*
%TO.P,R2,2*%
%TO.N,Net-(J2-Pin_1)*%
X135890000Y-74930000D03*
%TD*%
D22*
%TO.P,J3,1,Pin_1*%
%TO.N,Net-(J3-Pin_1)*%
X129540000Y-72350000D03*
D19*
%TO.P,J3,2,Pin_2*%
%TO.N,Net-(J1-Pin_1)*%
X129540000Y-69850000D03*
%TD*%
D23*
%TO.N,Net-(J1-Pin_1)*%
X152400000Y-80108229D02*
X155275000Y-82983229D01*
X153670000Y-64135000D02*
X152400000Y-65405000D01*
X152400000Y-65405000D02*
X152400000Y-80108229D01*
X155275000Y-82983229D02*
X155275000Y-83320000D01*
X157480000Y-65844794D02*
X155770206Y-64135000D01*
X157480000Y-66675000D02*
X157480000Y-65844794D01*
X155770206Y-64135000D02*
X153670000Y-64135000D01*
D24*
%TO.N,Net-(J2-Pin_4)*%
X135890000Y-78105000D02*
X153035000Y-60960000D01*
X153035000Y-60960000D02*
X173555000Y-60960000D01*
X173555000Y-60960000D02*
X175595000Y-63000000D01*
%TO.N,Net-(R1-Pad1)*%
X146463313Y-81058313D02*
X150966821Y-81058313D01*
X152735000Y-82826492D02*
X152735000Y-83320000D01*
X150966821Y-81058313D02*
X152735000Y-82826492D01*
X143510000Y-78105000D02*
X146463313Y-81058313D01*
%TO.N,Net-(U2-A1)*%
X160355000Y-82885000D02*
X160355000Y-83320000D01*
X157480000Y-80010000D02*
X160355000Y-82885000D01*
X157480000Y-79375000D02*
X157480000Y-80010000D01*
%TO.N,Net-(U2-A0)*%
X154940000Y-79375000D02*
X154940000Y-80010000D01*
X154940000Y-80010000D02*
X157815000Y-82885000D01*
X157815000Y-82885000D02*
X157815000Y-83320000D01*
%TO.N,Net-(U2-A5)*%
X172720000Y-79375000D02*
X172720000Y-80010000D01*
X172720000Y-80010000D02*
X170515000Y-82215000D01*
X170515000Y-82215000D02*
X170515000Y-83320000D01*
%TO.N,Net-(U2-A4)*%
X167975000Y-82215000D02*
X167975000Y-83320000D01*
X170180000Y-79375000D02*
X170180000Y-80010000D01*
X170180000Y-80010000D02*
X167975000Y-82215000D01*
%TO.N,Net-(U2-A3)*%
X165435000Y-82885000D02*
X165435000Y-83320000D01*
X162560000Y-79375000D02*
X162560000Y-80010000D01*
X162560000Y-80010000D02*
X165435000Y-82885000D01*
%TO.N,Net-(U2-A2)*%
X160020000Y-80010000D02*
X162895000Y-82885000D01*
X160020000Y-79375000D02*
X160020000Y-80010000D01*
X162895000Y-82885000D02*
X162895000Y-83320000D01*
%TD*%
M02*
