M48
; DRILL file {KiCad 9.0.0} date 2025-05-11T09:44:23-0500
; FORMAT={-:-/ absolute / metric / decimal}
; #@! TF.CreationDate,2025-05-11T09:44:23-05:00
; #@! TF.GenerationSoftware,Kicad,Pcbnew,9.0.0
; #@! TF.FileFunction,Plated,1,2,PTH
FMAT,2
METRIC
; #@! TA.AperFunction,Plated,PTH,ComponentDrill
T1C0.800
; #@! TA.AperFunction,Plated,PTH,ComponentDrill
T2C0.950
; #@! TA.AperFunction,Plated,PTH,ComponentDrill
T3C1.000
%
G90
G05
T1
X114.3Y-79.5
X114.3Y-83.0
X123.19Y-79.5
X123.19Y-83.0
X135.89Y-74.93
X135.89Y-78.105
X143.51Y-74.93
X143.51Y-78.105
X178.435Y-69.215
X178.435Y-76.835
X182.88Y-69.215
X182.88Y-76.835
T2
X130.5Y-83.0
X133.0Y-83.0
X135.5Y-83.0
X138.0Y-83.0
X148.59Y-69.85
X148.59Y-72.35
X148.59Y-74.85
X148.59Y-77.35
T3
X110.49Y-69.85
X110.49Y-72.35
X129.54Y-69.85
X129.54Y-72.35
X147.655Y-83.32
X150.195Y-83.32
X152.735Y-83.32
X154.94Y-66.675
X154.94Y-79.375
X155.275Y-83.32
X157.48Y-66.675
X157.48Y-79.375
X157.815Y-63.0
X157.815Y-83.32
X160.02Y-66.675
X160.02Y-79.375
X160.355Y-63.0
X160.355Y-83.32
X162.56Y-66.675
X162.56Y-79.375
X162.895Y-63.0
X162.895Y-83.32
X165.1Y-66.675
X165.1Y-79.375
X165.435Y-63.0
X165.435Y-83.32
X167.64Y-66.675
X167.64Y-79.375
X167.975Y-63.0
X167.975Y-83.32
X170.18Y-66.675
X170.18Y-79.375
X170.515Y-63.0
X170.515Y-83.32
X172.72Y-66.675
X172.72Y-79.375
X173.055Y-63.0
X173.055Y-83.32
X175.595Y-63.0
X175.595Y-83.32
X178.135Y-63.0
X178.135Y-83.32
X180.675Y-63.0
X180.675Y-83.32
X183.215Y-63.0
X183.215Y-83.32
X185.755Y-63.0
X185.755Y-83.32
M30
