%TF.GenerationSoftware,KiCad,Pcbnew,9.0.0*%
%TF.CreationDate,2025-05-11T09:44:17-05:00*%
%TF.ProjectId,Watch Winder,57617463-6820-4576-996e-6465722e6b69,rev?*%
%TF.SameCoordinates,Original*%
%TF.FileFunction,Legend,Bot*%
%TF.FilePolarity,Positive*%
%FSLAX46Y46*%
G04 Gerber Fmt 4.6, Leading zero omitted, Abs format (unit mm)*
G04 Created by KiCad (PCBNEW 9.0.0) date 2025-05-11 09:44:17*
%MOMM*%
%LPD*%
G01*
G04 APERTURE LIST*
%ADD10C,0.150000*%
%ADD11C,0.120000*%
G04 APERTURE END LIST*
D10*
X114334819Y-69723095D02*
X115144342Y-69723095D01*
X115144342Y-69723095D02*
X115239580Y-69770714D01*
X115239580Y-69770714D02*
X115287200Y-69818333D01*
X115287200Y-69818333D02*
X115334819Y-69913571D01*
X115334819Y-69913571D02*
X115334819Y-70104047D01*
X115334819Y-70104047D02*
X115287200Y-70199285D01*
X115287200Y-70199285D02*
X115239580Y-70246904D01*
X115239580Y-70246904D02*
X115144342Y-70294523D01*
X115144342Y-70294523D02*
X114334819Y-70294523D01*
X115334819Y-71294523D02*
X115334819Y-70723095D01*
X115334819Y-71008809D02*
X114334819Y-71008809D01*
X114334819Y-71008809D02*
X114477676Y-70913571D01*
X114477676Y-70913571D02*
X114572914Y-70818333D01*
X114572914Y-70818333D02*
X114620533Y-70723095D01*
X177469580Y-72515833D02*
X177517200Y-72468214D01*
X177517200Y-72468214D02*
X177564819Y-72325357D01*
X177564819Y-72325357D02*
X177564819Y-72230119D01*
X177564819Y-72230119D02*
X177517200Y-72087262D01*
X177517200Y-72087262D02*
X177421961Y-71992024D01*
X177421961Y-71992024D02*
X177326723Y-71944405D01*
X177326723Y-71944405D02*
X177136247Y-71896786D01*
X177136247Y-71896786D02*
X176993390Y-71896786D01*
X176993390Y-71896786D02*
X176802914Y-71944405D01*
X176802914Y-71944405D02*
X176707676Y-71992024D01*
X176707676Y-71992024D02*
X176612438Y-72087262D01*
X176612438Y-72087262D02*
X176564819Y-72230119D01*
X176564819Y-72230119D02*
X176564819Y-72325357D01*
X176564819Y-72325357D02*
X176612438Y-72468214D01*
X176612438Y-72468214D02*
X176660057Y-72515833D01*
X176564819Y-72849167D02*
X176564819Y-73468214D01*
X176564819Y-73468214D02*
X176945771Y-73134881D01*
X176945771Y-73134881D02*
X176945771Y-73277738D01*
X176945771Y-73277738D02*
X176993390Y-73372976D01*
X176993390Y-73372976D02*
X177041009Y-73420595D01*
X177041009Y-73420595D02*
X177136247Y-73468214D01*
X177136247Y-73468214D02*
X177374342Y-73468214D01*
X177374342Y-73468214D02*
X177469580Y-73420595D01*
X177469580Y-73420595D02*
X177517200Y-73372976D01*
X177517200Y-73372976D02*
X177564819Y-73277738D01*
X177564819Y-73277738D02*
X177564819Y-72992024D01*
X177564819Y-72992024D02*
X177517200Y-72896786D01*
X177517200Y-72896786D02*
X177469580Y-72849167D01*
D11*
%TO.C,U1*%
X115930000Y-67175000D02*
X116200000Y-67175000D01*
X115930000Y-73595000D02*
X115930000Y-67175000D01*
X122830000Y-67175000D02*
X122560000Y-67175000D01*
X122830000Y-73595000D02*
X122830000Y-67175000D01*
X116240000Y-65445000D02*
X115770000Y-65785000D01*
X115770000Y-65105000D01*
X116240000Y-65445000D01*
G36*
X116240000Y-65445000D02*
G01*
X115770000Y-65785000D01*
X115770000Y-65105000D01*
X116240000Y-65445000D01*
G37*
%TO.C,C3*%
X174350000Y-73393752D02*
X174350000Y-71971248D01*
X176170000Y-73393752D02*
X176170000Y-71971248D01*
%TD*%
M02*
