%TF.GenerationSoftware,KiCad,Pcbnew,9.0.0*%
%TF.CreationDate,2025-05-11T09:44:17-05:00*%
%TF.ProjectId,Watch Winder,57617463-6820-4576-996e-6465722e6b69,rev?*%
%TF.SameCoordinates,Original*%
%TF.FileFunction,Copper,L2,Bot*%
%TF.FilePolarity,Positive*%
%FSLAX46Y46*%
G04 Gerber Fmt 4.6, Leading zero omitted, Abs format (unit mm)*
G04 Created by KiCad (PCBNEW 9.0.0) date 2025-05-11 09:44:17*
%MOMM*%
%LPD*%
G01*
G04 APERTURE LIST*
G04 Aperture macros list*
%AMRoundRect*
0 Rectangle with rounded corners*
0 $1 Rounding radius*
0 $2 $3 $4 $5 $6 $7 $8 $9 X,Y pos of 4 corners*
0 Add a 4 corners polygon primitive as box body*
4,1,4,$2,$3,$4,$5,$6,$7,$8,$9,$2,$3,0*
0 Add four circle primitives for the rounded corners*
1,1,$1+$1,$2,$3*
1,1,$1+$1,$4,$5*
1,1,$1+$1,$6,$7*
1,1,$1+$1,$8,$9*
0 Add four rect primitives between the rounded corners*
20,1,$1+$1,$2,$3,$4,$5,0*
20,1,$1+$1,$4,$5,$6,$7,0*
20,1,$1+$1,$6,$7,$8,$9,0*
20,1,$1+$1,$8,$9,$2,$3,0*%
G04 Aperture macros list end*
%TA.AperFunction,ComponentPad*%
%ADD10RoundRect,0.250000X-0.725000X0.600000X-0.725000X-0.600000X0.725000X-0.600000X0.725000X0.600000X0*%
%TD*%
%TA.AperFunction,ComponentPad*%
%ADD11O,1.950000X1.700000*%
%TD*%
%TA.AperFunction,ComponentPad*%
%ADD12R,1.600000X1.600000*%
%TD*%
%TA.AperFunction,ComponentPad*%
%ADD13C,1.600000*%
%TD*%
%TA.AperFunction,ComponentPad*%
%ADD14C,2.000000*%
%TD*%
%TA.AperFunction,ComponentPad*%
%ADD15O,1.600000X1.600000*%
%TD*%
%TA.AperFunction,ComponentPad*%
%ADD16RoundRect,0.250000X-0.750000X0.600000X-0.750000X-0.600000X0.750000X-0.600000X0.750000X0.600000X0*%
%TD*%
%TA.AperFunction,ComponentPad*%
%ADD17O,2.000000X1.700000*%
%TD*%
%TA.AperFunction,ComponentPad*%
%ADD18RoundRect,0.250000X-0.600000X-0.725000X0.600000X-0.725000X0.600000X0.725000X-0.600000X0.725000X0*%
%TD*%
%TA.AperFunction,ComponentPad*%
%ADD19O,1.700000X1.950000*%
%TD*%
%TA.AperFunction,ComponentPad*%
%ADD20RoundRect,0.250000X0.750000X-0.600000X0.750000X0.600000X-0.750000X0.600000X-0.750000X-0.600000X0*%
%TD*%
%TA.AperFunction,SMDPad,CuDef*%
%ADD21RoundRect,0.250000X-0.350000X0.850000X-0.350000X-0.850000X0.350000X-0.850000X0.350000X0.850000X0*%
%TD*%
%TA.AperFunction,SMDPad,CuDef*%
%ADD22RoundRect,0.250000X-1.125000X1.275000X-1.125000X-1.275000X1.125000X-1.275000X1.125000X1.275000X0*%
%TD*%
%TA.AperFunction,SMDPad,CuDef*%
%ADD23RoundRect,0.249997X-2.650003X2.950003X-2.650003X-2.950003X2.650003X-2.950003X2.650003X2.950003X0*%
%TD*%
%TA.AperFunction,SMDPad,CuDef*%
%ADD24RoundRect,0.250000X0.650000X-0.412500X0.650000X0.412500X-0.650000X0.412500X-0.650000X-0.412500X0*%
%TD*%
%TA.AperFunction,Conductor*%
%ADD25C,1.000000*%
%TD*%
%TA.AperFunction,Conductor*%
%ADD26C,0.300000*%
%TD*%
%TA.AperFunction,Conductor*%
%ADD27C,0.500000*%
%TD*%
G04 APERTURE END LIST*
D10*
%TO.P,J4,1,Pin_1*%
%TO.N,Net-(J4-Pin_1)*%
X148590000Y-69850000D03*
D11*
%TO.P,J4,2,Pin_2*%
%TO.N,Net-(J4-Pin_2)*%
X148590000Y-72350000D03*
%TO.P,J4,3,Pin_3*%
%TO.N,Net-(J4-Pin_3)*%
X148590000Y-74850000D03*
%TO.P,J4,4,Pin_4*%
%TO.N,Net-(J4-Pin_4)*%
X148590000Y-77350000D03*
%TD*%
D12*
%TO.P,C2,1*%
%TO.N,Net-(J3-Pin_1)*%
X123190000Y-79500000D03*
D13*
%TO.P,C2,2*%
%TO.N,Net-(J1-Pin_1)*%
X123190000Y-83000000D03*
%TD*%
D14*
%TO.P,U3,1,EN*%
%TO.N,Net-(U2-A0)*%
X154940000Y-79375000D03*
%TO.P,U3,2,MS1*%
%TO.N,Net-(U2-A1)*%
X157480000Y-79375000D03*
%TO.P,U3,3,MS2*%
%TO.N,Net-(U2-A2)*%
X160020000Y-79375000D03*
%TO.P,U3,4,PDN*%
%TO.N,Net-(U2-A3)*%
X162560000Y-79375000D03*
%TO.P,U3,5,STDBY*%
%TO.N,Net-(U3-STDBY)*%
X165100000Y-79375000D03*
%TO.P,U3,6,CLK*%
%TO.N,Net-(U3-CLK)*%
X167640000Y-79375000D03*
%TO.P,U3,7,STEP*%
%TO.N,Net-(U2-A4)*%
X170180000Y-79375000D03*
%TO.P,U3,8,DIR*%
%TO.N,Net-(U2-A5)*%
X172720000Y-79375000D03*
%TO.P,U3,9,GNDIO*%
%TO.N,Net-(J1-Pin_1)*%
X172720000Y-66675000D03*
%TO.P,U3,10,VIO*%
%TO.N,Net-(J3-Pin_1)*%
X170180000Y-66675000D03*
%TO.P,U3,11,B2*%
%TO.N,Net-(J4-Pin_4)*%
X167640000Y-66675000D03*
%TO.P,U3,12,B1*%
%TO.N,Net-(J4-Pin_3)*%
X165100000Y-66675000D03*
%TO.P,U3,13,A1*%
%TO.N,Net-(J4-Pin_2)*%
X162560000Y-66675000D03*
%TO.P,U3,14,A2*%
%TO.N,Net-(J4-Pin_1)*%
X160020000Y-66675000D03*
%TO.P,U3,15,GNDM*%
%TO.N,Net-(J1-Pin_1)*%
X157480000Y-66675000D03*
%TO.P,U3,16,VM*%
%TO.N,Net-(J1-Pin_2)*%
X154940000Y-66675000D03*
%TD*%
D13*
%TO.P,R3,1*%
%TO.N,Net-(U3-STDBY)*%
X178435000Y-76835000D03*
D15*
%TO.P,R3,2*%
%TO.N,Net-(J3-Pin_1)*%
X178435000Y-69215000D03*
%TD*%
D16*
%TO.P,J1,1,Pin_1*%
%TO.N,Net-(J1-Pin_1)*%
X110490000Y-69850000D03*
D17*
%TO.P,J1,2,Pin_2*%
%TO.N,Net-(J1-Pin_2)*%
X110490000Y-72350000D03*
%TD*%
D14*
%TO.P,U2,1,RST*%
%TO.N,unconnected-(U2-RST-Pad1)*%
X147655000Y-83320000D03*
%TO.P,U2,2,3.3V*%
%TO.N,unconnected-(U2-3.3V-Pad2)*%
X150195000Y-83320000D03*
%TO.P,U2,3,3.3V*%
%TO.N,Net-(R1-Pad1)*%
X152735000Y-83320000D03*
%TO.P,U2,4,GND*%
%TO.N,Net-(J1-Pin_1)*%
X155275000Y-83320000D03*
%TO.P,U2,5,A0*%
%TO.N,Net-(U2-A0)*%
X157815000Y-83320000D03*
%TO.P,U2,6,A1*%
%TO.N,Net-(U2-A1)*%
X160355000Y-83320000D03*
%TO.P,U2,7,A2*%
%TO.N,Net-(U2-A2)*%
X162895000Y-83320000D03*
%TO.P,U2,8,A3*%
%TO.N,Net-(U2-A3)*%
X165435000Y-83320000D03*
%TO.P,U2,9,A4*%
%TO.N,Net-(U2-A4)*%
X167975000Y-83320000D03*
%TO.P,U2,10,A5*%
%TO.N,Net-(U2-A5)*%
X170515000Y-83320000D03*
%TO.P,U2,11,SCK*%
%TO.N,unconnected-(U2-SCK-Pad11)*%
X173055000Y-83320000D03*
%TO.P,U2,12,MOSI*%
%TO.N,unconnected-(U2-MOSI-Pad12)*%
X175595000Y-83320000D03*
%TO.P,U2,13,MISO*%
%TO.N,unconnected-(U2-MISO-Pad13)*%
X178135000Y-83320000D03*
%TO.P,U2,14,RX*%
%TO.N,unconnected-(U2-RX-Pad14)*%
X180675000Y-83320000D03*
%TO.P,U2,15,TX*%
%TO.N,unconnected-(U2-TX-Pad15)*%
X183215000Y-83320000D03*
%TO.P,U2,16,TXD0*%
%TO.N,unconnected-(U2-TXD0-Pad16)*%
X185755000Y-83320000D03*
%TO.P,U2,17,SDA*%
%TO.N,unconnected-(U2-SDA-Pad17)*%
X185755000Y-63000000D03*
%TO.P,U2,18,SCL*%
%TO.N,unconnected-(U2-SCL-Pad18)*%
X183215000Y-63000000D03*
%TO.P,U2,19,D5*%
%TO.N,unconnected-(U2-D5-Pad19)*%
X180675000Y-63000000D03*
%TO.P,U2,20,D6*%
%TO.N,unconnected-(U2-D6-Pad20)*%
X178135000Y-63000000D03*
%TO.P,U2,21,D9*%
%TO.N,Net-(J2-Pin_4)*%
X175595000Y-63000000D03*
%TO.P,U2,22,D10*%
%TO.N,unconnected-(U2-D10-Pad22)*%
X173055000Y-63000000D03*
%TO.P,U2,23,D11*%
%TO.N,unconnected-(U2-D11-Pad23)*%
X170515000Y-63000000D03*
%TO.P,U2,24,D12*%
%TO.N,unconnected-(U2-D12-Pad24)*%
X167975000Y-63000000D03*
%TO.P,U2,25,D13*%
%TO.N,unconnected-(U2-D13-Pad25)*%
X165435000Y-63000000D03*
%TO.P,U2,26,VBUS*%
%TO.N,unconnected-(U2-VBUS-Pad26)*%
X162895000Y-63000000D03*
%TO.P,U2,27,EN*%
%TO.N,unconnected-(U2-EN-Pad27)*%
X160355000Y-63000000D03*
%TO.P,U2,28,VBAT*%
%TO.N,unconnected-(U2-VBAT-Pad28)*%
X157815000Y-63000000D03*
%TD*%
D12*
%TO.P,C1,1*%
%TO.N,Net-(J1-Pin_2)*%
X114300000Y-79500000D03*
D13*
%TO.P,C1,2*%
%TO.N,Net-(J1-Pin_1)*%
X114300000Y-83000000D03*
%TD*%
%TO.P,R4,1*%
%TO.N,Net-(U3-CLK)*%
X182880000Y-76835000D03*
D15*
%TO.P,R4,2*%
%TO.N,Net-(J3-Pin_1)*%
X182880000Y-69215000D03*
%TD*%
D18*
%TO.P,J2,1,Pin_1*%
%TO.N,Net-(J2-Pin_1)*%
X130500000Y-83000000D03*
D19*
%TO.P,J2,2,Pin_2*%
%TO.N,Net-(J1-Pin_1)*%
X133000000Y-83000000D03*
%TO.P,J2,3,Pin_3*%
X135500000Y-83000000D03*
%TO.P,J2,4,Pin_4*%
%TO.N,Net-(J2-Pin_4)*%
X138000000Y-83000000D03*
%TD*%
D13*
%TO.P,R1,1*%
%TO.N,Net-(R1-Pad1)*%
X143510000Y-78105000D03*
D15*
%TO.P,R1,2*%
%TO.N,Net-(J2-Pin_4)*%
X135890000Y-78105000D03*
%TD*%
D13*
%TO.P,R2,1*%
%TO.N,Net-(R1-Pad1)*%
X143510000Y-74930000D03*
D15*
%TO.P,R2,2*%
%TO.N,Net-(J2-Pin_1)*%
X135890000Y-74930000D03*
%TD*%
D20*
%TO.P,J3,1,Pin_1*%
%TO.N,Net-(J3-Pin_1)*%
X129540000Y-72350000D03*
D17*
%TO.P,J3,2,Pin_2*%
%TO.N,Net-(J1-Pin_1)*%
X129540000Y-69850000D03*
%TD*%
D21*
%TO.P,U1,1,IN*%
%TO.N,Net-(J1-Pin_2)*%
X117100000Y-65445000D03*
D22*
%TO.P,U1,2,GND*%
%TO.N,Net-(J1-Pin_1)*%
X120905000Y-70070000D03*
X117855000Y-70070000D03*
D23*
X119380000Y-71745000D03*
D22*
X120905000Y-73420000D03*
X117855000Y-73420000D03*
D21*
%TO.P,U1,3,OUT*%
%TO.N,Net-(J3-Pin_1)*%
X121660000Y-65445000D03*
%TD*%
D24*
%TO.P,C3,1*%
%TO.N,Net-(J3-Pin_1)*%
X175260000Y-74245000D03*
%TO.P,C3,2*%
%TO.N,Net-(J1-Pin_1)*%
X175260000Y-71120000D03*
%TD*%
D25*
%TO.N,Net-(J1-Pin_1)*%
X133000000Y-83000000D02*
X133000000Y-84170000D01*
X157480000Y-66040000D02*
X157480000Y-66675000D01*
X175198272Y-80706728D02*
X182549886Y-80706728D01*
X171529978Y-64849978D02*
X158670022Y-64849978D01*
X119380000Y-63500000D02*
X119380000Y-71745000D01*
X132171000Y-84999000D02*
X124369000Y-84999000D01*
X174567745Y-81337255D02*
X175198272Y-80706728D01*
X178435000Y-66040000D02*
X175260000Y-69215000D01*
X156587350Y-68837650D02*
X153581432Y-68837650D01*
X182549886Y-80706728D02*
X185420000Y-77836614D01*
X119380000Y-83000000D02*
X123190000Y-83000000D01*
X185420000Y-67310000D02*
X184150000Y-66040000D01*
X124369000Y-84999000D02*
X123190000Y-83820000D01*
X147608782Y-62865000D02*
X120015000Y-62865000D01*
X145357745Y-81337255D02*
X174567745Y-81337255D01*
X120015000Y-62865000D02*
X119380000Y-63500000D01*
X172720000Y-66040000D02*
X171529978Y-64849978D01*
X184150000Y-66040000D02*
X178435000Y-66040000D01*
X153581432Y-68837650D02*
X147608782Y-62865000D01*
X133000000Y-84170000D02*
X132171000Y-84999000D01*
X129540000Y-69850000D02*
X121125000Y-69850000D01*
X175260000Y-69215000D02*
X172720000Y-66675000D01*
X141696000Y-84999000D02*
X145357745Y-81337255D01*
X157480000Y-66675000D02*
X157480000Y-67945000D01*
X110490000Y-69850000D02*
X117635000Y-69850000D01*
X172720000Y-66675000D02*
X172720000Y-66040000D01*
X158670022Y-64849978D02*
X157480000Y-66040000D01*
D26*
X135500000Y-83000000D02*
X135255000Y-82755000D01*
D25*
X114300000Y-83000000D02*
X119380000Y-83000000D01*
X119380000Y-83000000D02*
X119380000Y-71745000D01*
X121125000Y-69850000D02*
X120905000Y-70070000D01*
X123190000Y-83820000D02*
X123190000Y-83000000D01*
X157480000Y-67945000D02*
X156587350Y-68837650D01*
X185420000Y-77836614D02*
X185420000Y-67310000D01*
X117635000Y-69850000D02*
X117855000Y-70070000D01*
X175260000Y-69215000D02*
X175260000Y-71120000D01*
X135500000Y-84065000D02*
X136434000Y-84999000D01*
X136434000Y-84999000D02*
X141696000Y-84999000D01*
X135500000Y-83000000D02*
X135500000Y-84065000D01*
X133000000Y-83000000D02*
X135500000Y-83000000D01*
%TO.N,Net-(J1-Pin_2)*%
X149266000Y-61001000D02*
X118069000Y-61001000D01*
X107950000Y-71120000D02*
X109180000Y-72350000D01*
X117100000Y-65445000D02*
X109180000Y-65445000D01*
X107950000Y-66675000D02*
X107950000Y-71120000D01*
X109180000Y-72350000D02*
X110490000Y-72350000D01*
X154940000Y-66675000D02*
X149266000Y-61001000D01*
X110490000Y-75690000D02*
X114300000Y-79500000D01*
X117100000Y-61970000D02*
X117100000Y-65445000D01*
X118069000Y-61001000D02*
X117100000Y-61970000D01*
X109180000Y-65445000D02*
X107950000Y-66675000D01*
X110490000Y-72350000D02*
X110490000Y-75690000D01*
%TO.N,Net-(J3-Pin_1)*%
X121660000Y-65445000D02*
X131485000Y-65445000D01*
X169545000Y-68580000D02*
X170180000Y-67945000D01*
X182880000Y-69215000D02*
X178435000Y-69215000D01*
X146050000Y-78105000D02*
X147320000Y-79375000D01*
X132715000Y-71120000D02*
X131485000Y-72350000D01*
X170180000Y-67945000D02*
X170180000Y-66675000D01*
X132715000Y-66675000D02*
X132715000Y-71120000D01*
X146050000Y-73660000D02*
X146050000Y-78105000D01*
X178435000Y-73025000D02*
X178435000Y-69215000D01*
X175260000Y-74245000D02*
X177215000Y-74245000D01*
X129540000Y-73150000D02*
X123190000Y-79500000D01*
X131485000Y-72350000D02*
X129540000Y-72350000D01*
X175260000Y-74245000D02*
X173305000Y-74245000D01*
X129540000Y-72350000D02*
X129540000Y-73150000D01*
X147320000Y-79375000D02*
X151765000Y-79375000D01*
X153799899Y-77340101D02*
X160784899Y-77340101D01*
X177215000Y-74245000D02*
X178435000Y-73025000D01*
X143510000Y-71120000D02*
X146050000Y-73660000D01*
X160784899Y-77340101D02*
X169545000Y-68580000D01*
X131485000Y-65445000D02*
X132715000Y-66675000D01*
X151765000Y-79375000D02*
X153799899Y-77340101D01*
X132715000Y-71120000D02*
X143510000Y-71120000D01*
X168592500Y-69532500D02*
X169545000Y-68580000D01*
X173305000Y-74245000D02*
X168592500Y-69532500D01*
D27*
%TO.N,Net-(J2-Pin_1)*%
X130500000Y-83000000D02*
X130500000Y-80320000D01*
X130500000Y-80320000D02*
X135890000Y-74930000D01*
%TO.N,Net-(J2-Pin_4)*%
X135890000Y-78105000D02*
X138000000Y-80215000D01*
X138000000Y-80215000D02*
X138000000Y-83000000D01*
D25*
%TO.N,Net-(J4-Pin_4)*%
X167640000Y-68026398D02*
X160945918Y-74720480D01*
X167640000Y-66675000D02*
X167640000Y-68026398D01*
X153244520Y-74720480D02*
X150615000Y-77350000D01*
X150615000Y-77350000D02*
X148590000Y-77350000D01*
X160945918Y-74720480D02*
X153244520Y-74720480D01*
%TO.N,Net-(J4-Pin_1)*%
X152400000Y-70485000D02*
X151765000Y-69850000D01*
X151765000Y-69850000D02*
X148590000Y-69850000D01*
X160020000Y-66675000D02*
X160020000Y-68280956D01*
X157815956Y-70485000D02*
X152400000Y-70485000D01*
X160020000Y-68280956D02*
X157815956Y-70485000D01*
%TO.N,Net-(J4-Pin_2)*%
X162560000Y-66675000D02*
X162560000Y-68178248D01*
X162560000Y-68178248D02*
X158823291Y-71914957D01*
X150535000Y-72350000D02*
X148590000Y-72350000D01*
X158823291Y-71914957D02*
X150970043Y-71914957D01*
X150970043Y-71914957D02*
X150535000Y-72350000D01*
%TO.N,Net-(J4-Pin_3)*%
X152429700Y-73303405D02*
X150883105Y-74850000D01*
X165100000Y-68263024D02*
X160059619Y-73303405D01*
X150883105Y-74850000D02*
X148590000Y-74850000D01*
X165100000Y-66675000D02*
X165100000Y-68263024D01*
X160059619Y-73303405D02*
X152429700Y-73303405D01*
D27*
%TO.N,Net-(R1-Pad1)*%
X143510000Y-74930000D02*
X143510000Y-78105000D01*
%TO.N,Net-(U3-STDBY)*%
X165100000Y-79375000D02*
X165100000Y-77470000D01*
X177800000Y-76200000D02*
X178435000Y-76835000D01*
X165100000Y-77470000D02*
X166370000Y-76200000D01*
X166370000Y-76200000D02*
X177800000Y-76200000D01*
%TO.N,Net-(U3-CLK)*%
X177165000Y-78740000D02*
X180975000Y-78740000D01*
X175895000Y-77470000D02*
X177165000Y-78740000D01*
X167640000Y-79375000D02*
X167640000Y-77470000D01*
X180975000Y-78740000D02*
X182880000Y-76835000D01*
X167640000Y-77470000D02*
X175895000Y-77470000D01*
%TD*%
%TA.AperFunction,Conductor*%
%TO.N,Net-(J1-Pin_1)*%
G36*
X115585677Y-66694685D02*
G01*
X115606319Y-66711319D01*
X116205000Y-67310000D01*
X122555000Y-67310000D01*
X123153681Y-66711319D01*
X123215004Y-66677834D01*
X123241362Y-66675000D01*
X130686000Y-66675000D01*
X130753039Y-66694685D01*
X130798794Y-66747489D01*
X130810000Y-66799000D01*
X130810000Y-70966783D01*
X130790315Y-71033822D01*
X130737511Y-71079577D01*
X130668353Y-71089521D01*
X130620905Y-71072323D01*
X130609338Y-71065188D01*
X130609335Y-71065186D01*
X130609334Y-71065186D01*
X130442797Y-71010001D01*
X130442795Y-71010000D01*
X130340010Y-70999500D01*
X128739998Y-70999500D01*
X128739981Y-70999501D01*
X128637203Y-71010000D01*
X128637200Y-71010001D01*
X128470668Y-71065185D01*
X128470659Y-71065190D01*
X128411727Y-71101539D01*
X128346631Y-71120000D01*
X127635000Y-71120000D01*
X127635000Y-72973638D01*
X127615315Y-73040677D01*
X127598681Y-73061319D01*
X122591319Y-78068681D01*
X122529996Y-78102166D01*
X122503638Y-78105000D01*
X121285000Y-78105000D01*
X121285000Y-84966000D01*
X121265315Y-85033039D01*
X121212511Y-85078794D01*
X121161000Y-85090000D01*
X116329000Y-85090000D01*
X116261961Y-85070315D01*
X116216206Y-85017511D01*
X116205000Y-84966000D01*
X116205000Y-78105000D01*
X115570000Y-77470000D01*
X114351362Y-77470000D01*
X114284323Y-77450315D01*
X114263681Y-77433681D01*
X111796319Y-74966319D01*
X111762834Y-74904996D01*
X111760000Y-74878638D01*
X111760000Y-73711362D01*
X111779685Y-73644323D01*
X111796319Y-73623681D01*
X112395000Y-73025000D01*
X112395000Y-71120000D01*
X111230490Y-71120000D01*
X111174194Y-71106484D01*
X111158416Y-71098444D01*
X111056055Y-71065185D01*
X110956243Y-71032754D01*
X110956241Y-71032753D01*
X110956240Y-71032753D01*
X110794957Y-71007208D01*
X110746287Y-70999500D01*
X110233713Y-70999500D01*
X110191721Y-71006150D01*
X110023753Y-71032754D01*
X109902801Y-71072053D01*
X109832960Y-71074048D01*
X109776803Y-71041803D01*
X109256319Y-70521319D01*
X109222834Y-70459996D01*
X109220000Y-70433638D01*
X109220000Y-67361362D01*
X109239685Y-67294323D01*
X109256319Y-67273681D01*
X109818681Y-66711319D01*
X109880004Y-66677834D01*
X109906362Y-66675000D01*
X115518638Y-66675000D01*
X115585677Y-66694685D01*
G37*
%TD.AperFunction*%
%TD*%
M02*
