%TF.GenerationSoftware,KiCad,Pcbnew,9.0.0*%
%TF.CreationDate,2025-04-27T17:03:47-05:00*%
%TF.ProjectId,WWCROSS,57617463-6820-4576-996e-6465722e6b69,rev?*%
%TF.SameCoordinates,Original*%
%TF.FileFunction,Legend,Top*%
%TF.FilePolarity,Positive*%
%FSLAX46Y46*%
G04 Gerber Fmt 4.6, Leading zero omitted, Abs format (unit mm)*
G04 Created by KiCad (PCBNEW 9.0.0) date 2025-04-27 17:03:47*
%MOMM*%
%LPD*%
G01*
G04 APERTURE LIST*
%ADD10C,0.100000*%
%ADD11C,0.150000*%
%ADD12C,0.120000*%
G04 APERTURE END LIST*
D10*
X163068095Y-72482419D02*
X163068095Y-73291942D01*
X163068095Y-73291942D02*
X163115714Y-73387180D01*
X163115714Y-73387180D02*
X163163333Y-73434800D01*
X163163333Y-73434800D02*
X163258571Y-73482419D01*
X163258571Y-73482419D02*
X163449047Y-73482419D01*
X163449047Y-73482419D02*
X163544285Y-73434800D01*
X163544285Y-73434800D02*
X163591904Y-73387180D01*
X163591904Y-73387180D02*
X163639523Y-73291942D01*
X163639523Y-73291942D02*
X163639523Y-72482419D01*
X164020476Y-72482419D02*
X164639523Y-72482419D01*
X164639523Y-72482419D02*
X164306190Y-72863371D01*
X164306190Y-72863371D02*
X164449047Y-72863371D01*
X164449047Y-72863371D02*
X164544285Y-72910990D01*
X164544285Y-72910990D02*
X164591904Y-72958609D01*
X164591904Y-72958609D02*
X164639523Y-73053847D01*
X164639523Y-73053847D02*
X164639523Y-73291942D01*
X164639523Y-73291942D02*
X164591904Y-73387180D01*
X164591904Y-73387180D02*
X164544285Y-73434800D01*
X164544285Y-73434800D02*
X164449047Y-73482419D01*
X164449047Y-73482419D02*
X164163333Y-73482419D01*
X164163333Y-73482419D02*
X164068095Y-73434800D01*
X164068095Y-73434800D02*
X164020476Y-73387180D01*
D11*
X183334819Y-73191666D02*
X182858628Y-73524999D01*
X183334819Y-73763094D02*
X182334819Y-73763094D01*
X182334819Y-73763094D02*
X182334819Y-73382142D01*
X182334819Y-73382142D02*
X182382438Y-73286904D01*
X182382438Y-73286904D02*
X182430057Y-73239285D01*
X182430057Y-73239285D02*
X182525295Y-73191666D01*
X182525295Y-73191666D02*
X182668152Y-73191666D01*
X182668152Y-73191666D02*
X182763390Y-73239285D01*
X182763390Y-73239285D02*
X182811009Y-73286904D01*
X182811009Y-73286904D02*
X182858628Y-73382142D01*
X182858628Y-73382142D02*
X182858628Y-73763094D01*
X182668152Y-72334523D02*
X183334819Y-72334523D01*
X182287200Y-72572618D02*
X183001485Y-72810713D01*
X183001485Y-72810713D02*
X183001485Y-72191666D01*
X178889819Y-73191666D02*
X178413628Y-73524999D01*
X178889819Y-73763094D02*
X177889819Y-73763094D01*
X177889819Y-73763094D02*
X177889819Y-73382142D01*
X177889819Y-73382142D02*
X177937438Y-73286904D01*
X177937438Y-73286904D02*
X177985057Y-73239285D01*
X177985057Y-73239285D02*
X178080295Y-73191666D01*
X178080295Y-73191666D02*
X178223152Y-73191666D01*
X178223152Y-73191666D02*
X178318390Y-73239285D01*
X178318390Y-73239285D02*
X178366009Y-73286904D01*
X178366009Y-73286904D02*
X178413628Y-73382142D01*
X178413628Y-73382142D02*
X178413628Y-73763094D01*
X177889819Y-72858332D02*
X177889819Y-72239285D01*
X177889819Y-72239285D02*
X178270771Y-72572618D01*
X178270771Y-72572618D02*
X178270771Y-72429761D01*
X178270771Y-72429761D02*
X178318390Y-72334523D01*
X178318390Y-72334523D02*
X178366009Y-72286904D01*
X178366009Y-72286904D02*
X178461247Y-72239285D01*
X178461247Y-72239285D02*
X178699342Y-72239285D01*
X178699342Y-72239285D02*
X178794580Y-72286904D01*
X178794580Y-72286904D02*
X178842200Y-72334523D01*
X178842200Y-72334523D02*
X178889819Y-72429761D01*
X178889819Y-72429761D02*
X178889819Y-72715475D01*
X178889819Y-72715475D02*
X178842200Y-72810713D01*
X178842200Y-72810713D02*
X178794580Y-72858332D01*
X139533333Y-75384819D02*
X139200000Y-74908628D01*
X138961905Y-75384819D02*
X138961905Y-74384819D01*
X138961905Y-74384819D02*
X139342857Y-74384819D01*
X139342857Y-74384819D02*
X139438095Y-74432438D01*
X139438095Y-74432438D02*
X139485714Y-74480057D01*
X139485714Y-74480057D02*
X139533333Y-74575295D01*
X139533333Y-74575295D02*
X139533333Y-74718152D01*
X139533333Y-74718152D02*
X139485714Y-74813390D01*
X139485714Y-74813390D02*
X139438095Y-74861009D01*
X139438095Y-74861009D02*
X139342857Y-74908628D01*
X139342857Y-74908628D02*
X138961905Y-74908628D01*
X139914286Y-74480057D02*
X139961905Y-74432438D01*
X139961905Y-74432438D02*
X140057143Y-74384819D01*
X140057143Y-74384819D02*
X140295238Y-74384819D01*
X140295238Y-74384819D02*
X140390476Y-74432438D01*
X140390476Y-74432438D02*
X140438095Y-74480057D01*
X140438095Y-74480057D02*
X140485714Y-74575295D01*
X140485714Y-74575295D02*
X140485714Y-74670533D01*
X140485714Y-74670533D02*
X140438095Y-74813390D01*
X140438095Y-74813390D02*
X139866667Y-75384819D01*
X139866667Y-75384819D02*
X140485714Y-75384819D01*
X139533333Y-78559819D02*
X139200000Y-78083628D01*
X138961905Y-78559819D02*
X138961905Y-77559819D01*
X138961905Y-77559819D02*
X139342857Y-77559819D01*
X139342857Y-77559819D02*
X139438095Y-77607438D01*
X139438095Y-77607438D02*
X139485714Y-77655057D01*
X139485714Y-77655057D02*
X139533333Y-77750295D01*
X139533333Y-77750295D02*
X139533333Y-77893152D01*
X139533333Y-77893152D02*
X139485714Y-77988390D01*
X139485714Y-77988390D02*
X139438095Y-78036009D01*
X139438095Y-78036009D02*
X139342857Y-78083628D01*
X139342857Y-78083628D02*
X138961905Y-78083628D01*
X140485714Y-78559819D02*
X139914286Y-78559819D01*
X140200000Y-78559819D02*
X140200000Y-77559819D01*
X140200000Y-77559819D02*
X140104762Y-77702676D01*
X140104762Y-77702676D02*
X140009524Y-77797914D01*
X140009524Y-77797914D02*
X139914286Y-77845533D01*
X127468333Y-78464580D02*
X127420714Y-78512200D01*
X127420714Y-78512200D02*
X127277857Y-78559819D01*
X127277857Y-78559819D02*
X127182619Y-78559819D01*
X127182619Y-78559819D02*
X127039762Y-78512200D01*
X127039762Y-78512200D02*
X126944524Y-78416961D01*
X126944524Y-78416961D02*
X126896905Y-78321723D01*
X126896905Y-78321723D02*
X126849286Y-78131247D01*
X126849286Y-78131247D02*
X126849286Y-77988390D01*
X126849286Y-77988390D02*
X126896905Y-77797914D01*
X126896905Y-77797914D02*
X126944524Y-77702676D01*
X126944524Y-77702676D02*
X127039762Y-77607438D01*
X127039762Y-77607438D02*
X127182619Y-77559819D01*
X127182619Y-77559819D02*
X127277857Y-77559819D01*
X127277857Y-77559819D02*
X127420714Y-77607438D01*
X127420714Y-77607438D02*
X127468333Y-77655057D01*
X127849286Y-77655057D02*
X127896905Y-77607438D01*
X127896905Y-77607438D02*
X127992143Y-77559819D01*
X127992143Y-77559819D02*
X128230238Y-77559819D01*
X128230238Y-77559819D02*
X128325476Y-77607438D01*
X128325476Y-77607438D02*
X128373095Y-77655057D01*
X128373095Y-77655057D02*
X128420714Y-77750295D01*
X128420714Y-77750295D02*
X128420714Y-77845533D01*
X128420714Y-77845533D02*
X128373095Y-77988390D01*
X128373095Y-77988390D02*
X127801667Y-78559819D01*
X127801667Y-78559819D02*
X128420714Y-78559819D01*
X108886666Y-65494819D02*
X108886666Y-66209104D01*
X108886666Y-66209104D02*
X108839047Y-66351961D01*
X108839047Y-66351961D02*
X108743809Y-66447200D01*
X108743809Y-66447200D02*
X108600952Y-66494819D01*
X108600952Y-66494819D02*
X108505714Y-66494819D01*
X109886666Y-66494819D02*
X109315238Y-66494819D01*
X109600952Y-66494819D02*
X109600952Y-65494819D01*
X109600952Y-65494819D02*
X109505714Y-65637676D01*
X109505714Y-65637676D02*
X109410476Y-65732914D01*
X109410476Y-65732914D02*
X109315238Y-65780533D01*
D10*
X184023095Y-65497419D02*
X184023095Y-66306942D01*
X184023095Y-66306942D02*
X184070714Y-66402180D01*
X184070714Y-66402180D02*
X184118333Y-66449800D01*
X184118333Y-66449800D02*
X184213571Y-66497419D01*
X184213571Y-66497419D02*
X184404047Y-66497419D01*
X184404047Y-66497419D02*
X184499285Y-66449800D01*
X184499285Y-66449800D02*
X184546904Y-66402180D01*
X184546904Y-66402180D02*
X184594523Y-66306942D01*
X184594523Y-66306942D02*
X184594523Y-65497419D01*
X185023095Y-65592657D02*
X185070714Y-65545038D01*
X185070714Y-65545038D02*
X185165952Y-65497419D01*
X185165952Y-65497419D02*
X185404047Y-65497419D01*
X185404047Y-65497419D02*
X185499285Y-65545038D01*
X185499285Y-65545038D02*
X185546904Y-65592657D01*
X185546904Y-65592657D02*
X185594523Y-65687895D01*
X185594523Y-65687895D02*
X185594523Y-65783133D01*
X185594523Y-65783133D02*
X185546904Y-65925990D01*
X185546904Y-65925990D02*
X184975476Y-66497419D01*
X184975476Y-66497419D02*
X185594523Y-66497419D01*
D11*
X109688333Y-78464580D02*
X109640714Y-78512200D01*
X109640714Y-78512200D02*
X109497857Y-78559819D01*
X109497857Y-78559819D02*
X109402619Y-78559819D01*
X109402619Y-78559819D02*
X109259762Y-78512200D01*
X109259762Y-78512200D02*
X109164524Y-78416961D01*
X109164524Y-78416961D02*
X109116905Y-78321723D01*
X109116905Y-78321723D02*
X109069286Y-78131247D01*
X109069286Y-78131247D02*
X109069286Y-77988390D01*
X109069286Y-77988390D02*
X109116905Y-77797914D01*
X109116905Y-77797914D02*
X109164524Y-77702676D01*
X109164524Y-77702676D02*
X109259762Y-77607438D01*
X109259762Y-77607438D02*
X109402619Y-77559819D01*
X109402619Y-77559819D02*
X109497857Y-77559819D01*
X109497857Y-77559819D02*
X109640714Y-77607438D01*
X109640714Y-77607438D02*
X109688333Y-77655057D01*
X110640714Y-78559819D02*
X110069286Y-78559819D01*
X110355000Y-78559819D02*
X110355000Y-77559819D01*
X110355000Y-77559819D02*
X110259762Y-77702676D01*
X110259762Y-77702676D02*
X110164524Y-77797914D01*
X110164524Y-77797914D02*
X110069286Y-77845533D01*
X133916666Y-79654819D02*
X133916666Y-80369104D01*
X133916666Y-80369104D02*
X133869047Y-80511961D01*
X133869047Y-80511961D02*
X133773809Y-80607200D01*
X133773809Y-80607200D02*
X133630952Y-80654819D01*
X133630952Y-80654819D02*
X133535714Y-80654819D01*
X134345238Y-79750057D02*
X134392857Y-79702438D01*
X134392857Y-79702438D02*
X134488095Y-79654819D01*
X134488095Y-79654819D02*
X134726190Y-79654819D01*
X134726190Y-79654819D02*
X134821428Y-79702438D01*
X134821428Y-79702438D02*
X134869047Y-79750057D01*
X134869047Y-79750057D02*
X134916666Y-79845295D01*
X134916666Y-79845295D02*
X134916666Y-79940533D01*
X134916666Y-79940533D02*
X134869047Y-80083390D01*
X134869047Y-80083390D02*
X134297619Y-80654819D01*
X134297619Y-80654819D02*
X134916666Y-80654819D01*
X127936666Y-66129819D02*
X127936666Y-66844104D01*
X127936666Y-66844104D02*
X127889047Y-66986961D01*
X127889047Y-66986961D02*
X127793809Y-67082200D01*
X127793809Y-67082200D02*
X127650952Y-67129819D01*
X127650952Y-67129819D02*
X127555714Y-67129819D01*
X128317619Y-66129819D02*
X128936666Y-66129819D01*
X128936666Y-66129819D02*
X128603333Y-66510771D01*
X128603333Y-66510771D02*
X128746190Y-66510771D01*
X128746190Y-66510771D02*
X128841428Y-66558390D01*
X128841428Y-66558390D02*
X128889047Y-66606009D01*
X128889047Y-66606009D02*
X128936666Y-66701247D01*
X128936666Y-66701247D02*
X128936666Y-66939342D01*
X128936666Y-66939342D02*
X128889047Y-67034580D01*
X128889047Y-67034580D02*
X128841428Y-67082200D01*
X128841428Y-67082200D02*
X128746190Y-67129819D01*
X128746190Y-67129819D02*
X128460476Y-67129819D01*
X128460476Y-67129819D02*
X128365238Y-67082200D01*
X128365238Y-67082200D02*
X128317619Y-67034580D01*
X146351666Y-65494819D02*
X146351666Y-66209104D01*
X146351666Y-66209104D02*
X146304047Y-66351961D01*
X146304047Y-66351961D02*
X146208809Y-66447200D01*
X146208809Y-66447200D02*
X146065952Y-66494819D01*
X146065952Y-66494819D02*
X145970714Y-66494819D01*
X147256428Y-65828152D02*
X147256428Y-66494819D01*
X147018333Y-65447200D02*
X146780238Y-66161485D01*
X146780238Y-66161485D02*
X147399285Y-66161485D01*
D10*
%TO.C,U3*%
X173990000Y-80645000D02*
X153670000Y-80645000D01*
X173990000Y-65405000D02*
X173990000Y-80645000D01*
X153670000Y-80645000D02*
X153670000Y-65405000D01*
X153670000Y-65405000D02*
X173990000Y-65405000D01*
D12*
%TO.C,R4*%
X181510000Y-76295000D02*
X181510000Y-69755000D01*
X181840000Y-76295000D02*
X181510000Y-76295000D01*
X183920000Y-76295000D02*
X184250000Y-76295000D01*
X184250000Y-76295000D02*
X184250000Y-69755000D01*
X181510000Y-69755000D02*
X181840000Y-69755000D01*
X184250000Y-69755000D02*
X183920000Y-69755000D01*
%TO.C,R3*%
X177065000Y-76295000D02*
X177065000Y-69755000D01*
X177395000Y-76295000D02*
X177065000Y-76295000D01*
X179475000Y-76295000D02*
X179805000Y-76295000D01*
X179805000Y-76295000D02*
X179805000Y-69755000D01*
X177065000Y-69755000D02*
X177395000Y-69755000D01*
X179805000Y-69755000D02*
X179475000Y-69755000D01*
%TO.C,R2*%
X142970000Y-76300000D02*
X136430000Y-76300000D01*
X142970000Y-75970000D02*
X142970000Y-76300000D01*
X142970000Y-73890000D02*
X142970000Y-73560000D01*
X142970000Y-73560000D02*
X136430000Y-73560000D01*
X136430000Y-76300000D02*
X136430000Y-75970000D01*
X136430000Y-73560000D02*
X136430000Y-73890000D01*
%TO.C,R1*%
X142970000Y-79475000D02*
X136430000Y-79475000D01*
X142970000Y-79145000D02*
X142970000Y-79475000D01*
X142970000Y-77065000D02*
X142970000Y-76735000D01*
X142970000Y-76735000D02*
X136430000Y-76735000D01*
X136430000Y-79475000D02*
X136430000Y-79145000D01*
X136430000Y-76735000D02*
X136430000Y-77065000D01*
%TO.C,C2*%
X122150000Y-81971000D02*
X119173000Y-81971000D01*
X122150000Y-82011000D02*
X119180000Y-82011000D01*
X122150000Y-82051000D02*
X119188000Y-82051000D01*
X122150000Y-82091000D02*
X119196000Y-82091000D01*
X122150000Y-82131000D02*
X119205000Y-82131000D01*
X122150000Y-82171000D02*
X119214000Y-82171000D01*
X122150000Y-82211000D02*
X119223000Y-82211000D01*
X122150000Y-82251000D02*
X119233000Y-82251000D01*
X122150000Y-82291000D02*
X119243000Y-82291000D01*
X122150000Y-82331000D02*
X119254000Y-82331000D01*
X122150000Y-82371000D02*
X119265000Y-82371000D01*
X122150000Y-82411000D02*
X119276000Y-82411000D01*
X122150000Y-82451000D02*
X119288000Y-82451000D01*
X122150000Y-82491000D02*
X119301000Y-82491000D01*
X122150000Y-82531000D02*
X119313000Y-82531000D01*
X122150000Y-82571000D02*
X119327000Y-82571000D01*
X122150000Y-82611000D02*
X119340000Y-82611000D01*
X122150000Y-82651000D02*
X119355000Y-82651000D01*
X122150000Y-82691000D02*
X119369000Y-82691000D01*
X122150000Y-82731000D02*
X119385000Y-82731000D01*
X122150000Y-82771000D02*
X119400000Y-82771000D01*
X122150000Y-82811000D02*
X119416000Y-82811000D01*
X122150000Y-82851000D02*
X119433000Y-82851000D01*
X122150000Y-82891000D02*
X119450000Y-82891000D01*
X122150000Y-82931000D02*
X119468000Y-82931000D01*
X122150000Y-82971000D02*
X119486000Y-82971000D01*
X122150000Y-83011000D02*
X119504000Y-83011000D01*
X122150000Y-83051000D02*
X119524000Y-83051000D01*
X122150000Y-83091000D02*
X119543000Y-83091000D01*
X122150000Y-83131000D02*
X119563000Y-83131000D01*
X122150000Y-83171000D02*
X119584000Y-83171000D01*
X122150000Y-83211000D02*
X119606000Y-83211000D01*
X122150000Y-83251000D02*
X119628000Y-83251000D01*
X122150000Y-83291000D02*
X119650000Y-83291000D01*
X122150000Y-83331000D02*
X119673000Y-83331000D01*
X122150000Y-83371000D02*
X119697000Y-83371000D01*
X122150000Y-83411000D02*
X119721000Y-83411000D01*
X122150000Y-83451000D02*
X119746000Y-83451000D01*
X122150000Y-83491000D02*
X119772000Y-83491000D01*
X122150000Y-83531000D02*
X119798000Y-83531000D01*
X122150000Y-83571000D02*
X119825000Y-83571000D01*
X122150000Y-83611000D02*
X119852000Y-83611000D01*
X122150000Y-83651000D02*
X119881000Y-83651000D01*
X122150000Y-83691000D02*
X119910000Y-83691000D01*
X122150000Y-83731000D02*
X119940000Y-83731000D01*
X122150000Y-83771000D02*
X119970000Y-83771000D01*
X122150000Y-83811000D02*
X120001000Y-83811000D01*
X122150000Y-83851000D02*
X120034000Y-83851000D01*
X122150000Y-83891000D02*
X120066000Y-83891000D01*
X122150000Y-83931000D02*
X120100000Y-83931000D01*
X122150000Y-83971000D02*
X120135000Y-83971000D01*
X122150000Y-84011000D02*
X120171000Y-84011000D01*
X123723000Y-85331000D02*
X122657000Y-85331000D01*
X123958000Y-85291000D02*
X122422000Y-85291000D01*
X124138000Y-85251000D02*
X122242000Y-85251000D01*
X124288000Y-85211000D02*
X122092000Y-85211000D01*
X124419000Y-85171000D02*
X121961000Y-85171000D01*
X124536000Y-85131000D02*
X121844000Y-85131000D01*
X124643000Y-85091000D02*
X121737000Y-85091000D01*
X124742000Y-85051000D02*
X121638000Y-85051000D01*
X124835000Y-85011000D02*
X121545000Y-85011000D01*
X124921000Y-84971000D02*
X121459000Y-84971000D01*
X125003000Y-84931000D02*
X121377000Y-84931000D01*
X125080000Y-84891000D02*
X121300000Y-84891000D01*
X125154000Y-84851000D02*
X121226000Y-84851000D01*
X125224000Y-84811000D02*
X121156000Y-84811000D01*
X125292000Y-84771000D02*
X121088000Y-84771000D01*
X125356000Y-84731000D02*
X121024000Y-84731000D01*
X125418000Y-84691000D02*
X120962000Y-84691000D01*
X125477000Y-84651000D02*
X120903000Y-84651000D01*
X125505000Y-76840302D02*
X125505000Y-77640302D01*
X125535000Y-84611000D02*
X120845000Y-84611000D01*
X125590000Y-84571000D02*
X120790000Y-84571000D01*
X125644000Y-84531000D02*
X120736000Y-84531000D01*
X125695000Y-84491000D02*
X120685000Y-84491000D01*
X125746000Y-84451000D02*
X120634000Y-84451000D01*
X125794000Y-84411000D02*
X120586000Y-84411000D01*
X125841000Y-84371000D02*
X120539000Y-84371000D01*
X125887000Y-84331000D02*
X120493000Y-84331000D01*
X125905000Y-77240302D02*
X125105000Y-77240302D01*
X125931000Y-84291000D02*
X120449000Y-84291000D01*
X125974000Y-84251000D02*
X120406000Y-84251000D01*
X126016000Y-84211000D02*
X120364000Y-84211000D01*
X126057000Y-84171000D02*
X120323000Y-84171000D01*
X126097000Y-84131000D02*
X120283000Y-84131000D01*
X126135000Y-84091000D02*
X120245000Y-84091000D01*
X126173000Y-84051000D02*
X120207000Y-84051000D01*
X126209000Y-84011000D02*
X124230000Y-84011000D01*
X126245000Y-83971000D02*
X124230000Y-83971000D01*
X126280000Y-83931000D02*
X124230000Y-83931000D01*
X126314000Y-83891000D02*
X124230000Y-83891000D01*
X126346000Y-83851000D02*
X124230000Y-83851000D01*
X126379000Y-83811000D02*
X124230000Y-83811000D01*
X126410000Y-83771000D02*
X124230000Y-83771000D01*
X126440000Y-83731000D02*
X124230000Y-83731000D01*
X126470000Y-83691000D02*
X124230000Y-83691000D01*
X126499000Y-83651000D02*
X124230000Y-83651000D01*
X126528000Y-83611000D02*
X124230000Y-83611000D01*
X126555000Y-83571000D02*
X124230000Y-83571000D01*
X126582000Y-83531000D02*
X124230000Y-83531000D01*
X126608000Y-83491000D02*
X124230000Y-83491000D01*
X126634000Y-83451000D02*
X124230000Y-83451000D01*
X126659000Y-83411000D02*
X124230000Y-83411000D01*
X126683000Y-83371000D02*
X124230000Y-83371000D01*
X126707000Y-83331000D02*
X124230000Y-83331000D01*
X126730000Y-83291000D02*
X124230000Y-83291000D01*
X126752000Y-83251000D02*
X124230000Y-83251000D01*
X126774000Y-83211000D02*
X124230000Y-83211000D01*
X126796000Y-83171000D02*
X124230000Y-83171000D01*
X126817000Y-83131000D02*
X124230000Y-83131000D01*
X126837000Y-83091000D02*
X124230000Y-83091000D01*
X126856000Y-83051000D02*
X124230000Y-83051000D01*
X126876000Y-83011000D02*
X124230000Y-83011000D01*
X126894000Y-82971000D02*
X124230000Y-82971000D01*
X126912000Y-82931000D02*
X124230000Y-82931000D01*
X126930000Y-82891000D02*
X124230000Y-82891000D01*
X126947000Y-82851000D02*
X124230000Y-82851000D01*
X126964000Y-82811000D02*
X124230000Y-82811000D01*
X126980000Y-82771000D02*
X124230000Y-82771000D01*
X126995000Y-82731000D02*
X124230000Y-82731000D01*
X127011000Y-82691000D02*
X124230000Y-82691000D01*
X127025000Y-82651000D02*
X124230000Y-82651000D01*
X127040000Y-82611000D02*
X124230000Y-82611000D01*
X127053000Y-82571000D02*
X124230000Y-82571000D01*
X127067000Y-82531000D02*
X124230000Y-82531000D01*
X127079000Y-82491000D02*
X124230000Y-82491000D01*
X127092000Y-82451000D02*
X124230000Y-82451000D01*
X127104000Y-82411000D02*
X124230000Y-82411000D01*
X127115000Y-82371000D02*
X124230000Y-82371000D01*
X127126000Y-82331000D02*
X124230000Y-82331000D01*
X127137000Y-82291000D02*
X124230000Y-82291000D01*
X127147000Y-82251000D02*
X124230000Y-82251000D01*
X127157000Y-82211000D02*
X124230000Y-82211000D01*
X127166000Y-82171000D02*
X124230000Y-82171000D01*
X127175000Y-82131000D02*
X124230000Y-82131000D01*
X127184000Y-82091000D02*
X124230000Y-82091000D01*
X127192000Y-82051000D02*
X124230000Y-82051000D01*
X127200000Y-82011000D02*
X124230000Y-82011000D01*
X127207000Y-81971000D02*
X124230000Y-81971000D01*
X127214000Y-81930000D02*
X119166000Y-81930000D01*
X127220000Y-81890000D02*
X119160000Y-81890000D01*
X127227000Y-81850000D02*
X119153000Y-81850000D01*
X127232000Y-81810000D02*
X119148000Y-81810000D01*
X127238000Y-81770000D02*
X119142000Y-81770000D01*
X127242000Y-81730000D02*
X119138000Y-81730000D01*
X127247000Y-81690000D02*
X119133000Y-81690000D01*
X127251000Y-81650000D02*
X119129000Y-81650000D01*
X127255000Y-81610000D02*
X119125000Y-81610000D01*
X127258000Y-81570000D02*
X119122000Y-81570000D01*
X127261000Y-81530000D02*
X119119000Y-81530000D01*
X127264000Y-81490000D02*
X119116000Y-81490000D01*
X127266000Y-81450000D02*
X119114000Y-81450000D01*
X127267000Y-81410000D02*
X119113000Y-81410000D01*
X127269000Y-81370000D02*
X119111000Y-81370000D01*
X127270000Y-81250000D02*
X119110000Y-81250000D01*
X127270000Y-81290000D02*
X119110000Y-81290000D01*
X127270000Y-81330000D02*
X119110000Y-81330000D01*
X127310000Y-81250000D02*
G75*
G02*
X119070000Y-81250000I-4120000J0D01*
G01*
X119070000Y-81250000D02*
G75*
G02*
X127310000Y-81250000I4120000J0D01*
G01*
%TO.C,J1*%
X107880000Y-66940000D02*
X107880000Y-69440000D01*
X108180000Y-67240000D02*
X108180000Y-74960000D01*
X108180000Y-74960000D02*
X112200000Y-74960000D01*
X109680000Y-67240000D02*
X109680000Y-68240000D01*
X109680000Y-68240000D02*
X108180000Y-68240000D01*
X109680000Y-73960000D02*
X108180000Y-73960000D01*
X109680000Y-74960000D02*
X109680000Y-73960000D01*
X110380000Y-66940000D02*
X107880000Y-66940000D01*
X110490000Y-67240000D02*
X110490000Y-67740000D01*
X110490000Y-67740000D02*
X111700000Y-67740000D01*
X110490000Y-74460000D02*
X110490000Y-74960000D01*
X111700000Y-67740000D02*
X111700000Y-74460000D01*
X111700000Y-74460000D02*
X110490000Y-74460000D01*
X112200000Y-67240000D02*
X108180000Y-67240000D01*
X112200000Y-74960000D02*
X112200000Y-67240000D01*
D10*
%TO.C,U2*%
X141305000Y-61730000D02*
X192105000Y-61730000D01*
X141305000Y-84590000D02*
X141305000Y-61730000D01*
X192105000Y-61730000D02*
X192105000Y-84590000D01*
X192105000Y-84590000D02*
X141305000Y-84590000D01*
D12*
%TO.C,C1*%
X113260000Y-81971000D02*
X110283000Y-81971000D01*
X113260000Y-82011000D02*
X110290000Y-82011000D01*
X113260000Y-82051000D02*
X110298000Y-82051000D01*
X113260000Y-82091000D02*
X110306000Y-82091000D01*
X113260000Y-82131000D02*
X110315000Y-82131000D01*
X113260000Y-82171000D02*
X110324000Y-82171000D01*
X113260000Y-82211000D02*
X110333000Y-82211000D01*
X113260000Y-82251000D02*
X110343000Y-82251000D01*
X113260000Y-82291000D02*
X110353000Y-82291000D01*
X113260000Y-82331000D02*
X110364000Y-82331000D01*
X113260000Y-82371000D02*
X110375000Y-82371000D01*
X113260000Y-82411000D02*
X110386000Y-82411000D01*
X113260000Y-82451000D02*
X110398000Y-82451000D01*
X113260000Y-82491000D02*
X110411000Y-82491000D01*
X113260000Y-82531000D02*
X110423000Y-82531000D01*
X113260000Y-82571000D02*
X110437000Y-82571000D01*
X113260000Y-82611000D02*
X110450000Y-82611000D01*
X113260000Y-82651000D02*
X110465000Y-82651000D01*
X113260000Y-82691000D02*
X110479000Y-82691000D01*
X113260000Y-82731000D02*
X110495000Y-82731000D01*
X113260000Y-82771000D02*
X110510000Y-82771000D01*
X113260000Y-82811000D02*
X110526000Y-82811000D01*
X113260000Y-82851000D02*
X110543000Y-82851000D01*
X113260000Y-82891000D02*
X110560000Y-82891000D01*
X113260000Y-82931000D02*
X110578000Y-82931000D01*
X113260000Y-82971000D02*
X110596000Y-82971000D01*
X113260000Y-83011000D02*
X110614000Y-83011000D01*
X113260000Y-83051000D02*
X110634000Y-83051000D01*
X113260000Y-83091000D02*
X110653000Y-83091000D01*
X113260000Y-83131000D02*
X110673000Y-83131000D01*
X113260000Y-83171000D02*
X110694000Y-83171000D01*
X113260000Y-83211000D02*
X110716000Y-83211000D01*
X113260000Y-83251000D02*
X110738000Y-83251000D01*
X113260000Y-83291000D02*
X110760000Y-83291000D01*
X113260000Y-83331000D02*
X110783000Y-83331000D01*
X113260000Y-83371000D02*
X110807000Y-83371000D01*
X113260000Y-83411000D02*
X110831000Y-83411000D01*
X113260000Y-83451000D02*
X110856000Y-83451000D01*
X113260000Y-83491000D02*
X110882000Y-83491000D01*
X113260000Y-83531000D02*
X110908000Y-83531000D01*
X113260000Y-83571000D02*
X110935000Y-83571000D01*
X113260000Y-83611000D02*
X110962000Y-83611000D01*
X113260000Y-83651000D02*
X110991000Y-83651000D01*
X113260000Y-83691000D02*
X111020000Y-83691000D01*
X113260000Y-83731000D02*
X111050000Y-83731000D01*
X113260000Y-83771000D02*
X111080000Y-83771000D01*
X113260000Y-83811000D02*
X111111000Y-83811000D01*
X113260000Y-83851000D02*
X111144000Y-83851000D01*
X113260000Y-83891000D02*
X111176000Y-83891000D01*
X113260000Y-83931000D02*
X111210000Y-83931000D01*
X113260000Y-83971000D02*
X111245000Y-83971000D01*
X113260000Y-84011000D02*
X111281000Y-84011000D01*
X114833000Y-85331000D02*
X113767000Y-85331000D01*
X115068000Y-85291000D02*
X113532000Y-85291000D01*
X115248000Y-85251000D02*
X113352000Y-85251000D01*
X115398000Y-85211000D02*
X113202000Y-85211000D01*
X115529000Y-85171000D02*
X113071000Y-85171000D01*
X115646000Y-85131000D02*
X112954000Y-85131000D01*
X115753000Y-85091000D02*
X112847000Y-85091000D01*
X115852000Y-85051000D02*
X112748000Y-85051000D01*
X115945000Y-85011000D02*
X112655000Y-85011000D01*
X116031000Y-84971000D02*
X112569000Y-84971000D01*
X116113000Y-84931000D02*
X112487000Y-84931000D01*
X116190000Y-84891000D02*
X112410000Y-84891000D01*
X116264000Y-84851000D02*
X112336000Y-84851000D01*
X116334000Y-84811000D02*
X112266000Y-84811000D01*
X116402000Y-84771000D02*
X112198000Y-84771000D01*
X116466000Y-84731000D02*
X112134000Y-84731000D01*
X116528000Y-84691000D02*
X112072000Y-84691000D01*
X116587000Y-84651000D02*
X112013000Y-84651000D01*
X116615000Y-76840302D02*
X116615000Y-77640302D01*
X116645000Y-84611000D02*
X111955000Y-84611000D01*
X116700000Y-84571000D02*
X111900000Y-84571000D01*
X116754000Y-84531000D02*
X111846000Y-84531000D01*
X116805000Y-84491000D02*
X111795000Y-84491000D01*
X116856000Y-84451000D02*
X111744000Y-84451000D01*
X116904000Y-84411000D02*
X111696000Y-84411000D01*
X116951000Y-84371000D02*
X111649000Y-84371000D01*
X116997000Y-84331000D02*
X111603000Y-84331000D01*
X117015000Y-77240302D02*
X116215000Y-77240302D01*
X117041000Y-84291000D02*
X111559000Y-84291000D01*
X117084000Y-84251000D02*
X111516000Y-84251000D01*
X117126000Y-84211000D02*
X111474000Y-84211000D01*
X117167000Y-84171000D02*
X111433000Y-84171000D01*
X117207000Y-84131000D02*
X111393000Y-84131000D01*
X117245000Y-84091000D02*
X111355000Y-84091000D01*
X117283000Y-84051000D02*
X111317000Y-84051000D01*
X117319000Y-84011000D02*
X115340000Y-84011000D01*
X117355000Y-83971000D02*
X115340000Y-83971000D01*
X117390000Y-83931000D02*
X115340000Y-83931000D01*
X117424000Y-83891000D02*
X115340000Y-83891000D01*
X117456000Y-83851000D02*
X115340000Y-83851000D01*
X117489000Y-83811000D02*
X115340000Y-83811000D01*
X117520000Y-83771000D02*
X115340000Y-83771000D01*
X117550000Y-83731000D02*
X115340000Y-83731000D01*
X117580000Y-83691000D02*
X115340000Y-83691000D01*
X117609000Y-83651000D02*
X115340000Y-83651000D01*
X117638000Y-83611000D02*
X115340000Y-83611000D01*
X117665000Y-83571000D02*
X115340000Y-83571000D01*
X117692000Y-83531000D02*
X115340000Y-83531000D01*
X117718000Y-83491000D02*
X115340000Y-83491000D01*
X117744000Y-83451000D02*
X115340000Y-83451000D01*
X117769000Y-83411000D02*
X115340000Y-83411000D01*
X117793000Y-83371000D02*
X115340000Y-83371000D01*
X117817000Y-83331000D02*
X115340000Y-83331000D01*
X117840000Y-83291000D02*
X115340000Y-83291000D01*
X117862000Y-83251000D02*
X115340000Y-83251000D01*
X117884000Y-83211000D02*
X115340000Y-83211000D01*
X117906000Y-83171000D02*
X115340000Y-83171000D01*
X117927000Y-83131000D02*
X115340000Y-83131000D01*
X117947000Y-83091000D02*
X115340000Y-83091000D01*
X117966000Y-83051000D02*
X115340000Y-83051000D01*
X117986000Y-83011000D02*
X115340000Y-83011000D01*
X118004000Y-82971000D02*
X115340000Y-82971000D01*
X118022000Y-82931000D02*
X115340000Y-82931000D01*
X118040000Y-82891000D02*
X115340000Y-82891000D01*
X118057000Y-82851000D02*
X115340000Y-82851000D01*
X118074000Y-82811000D02*
X115340000Y-82811000D01*
X118090000Y-82771000D02*
X115340000Y-82771000D01*
X118105000Y-82731000D02*
X115340000Y-82731000D01*
X118121000Y-82691000D02*
X115340000Y-82691000D01*
X118135000Y-82651000D02*
X115340000Y-82651000D01*
X118150000Y-82611000D02*
X115340000Y-82611000D01*
X118163000Y-82571000D02*
X115340000Y-82571000D01*
X118177000Y-82531000D02*
X115340000Y-82531000D01*
X118189000Y-82491000D02*
X115340000Y-82491000D01*
X118202000Y-82451000D02*
X115340000Y-82451000D01*
X118214000Y-82411000D02*
X115340000Y-82411000D01*
X118225000Y-82371000D02*
X115340000Y-82371000D01*
X118236000Y-82331000D02*
X115340000Y-82331000D01*
X118247000Y-82291000D02*
X115340000Y-82291000D01*
X118257000Y-82251000D02*
X115340000Y-82251000D01*
X118267000Y-82211000D02*
X115340000Y-82211000D01*
X118276000Y-82171000D02*
X115340000Y-82171000D01*
X118285000Y-82131000D02*
X115340000Y-82131000D01*
X118294000Y-82091000D02*
X115340000Y-82091000D01*
X118302000Y-82051000D02*
X115340000Y-82051000D01*
X118310000Y-82011000D02*
X115340000Y-82011000D01*
X118317000Y-81971000D02*
X115340000Y-81971000D01*
X118324000Y-81930000D02*
X110276000Y-81930000D01*
X118330000Y-81890000D02*
X110270000Y-81890000D01*
X118337000Y-81850000D02*
X110263000Y-81850000D01*
X118342000Y-81810000D02*
X110258000Y-81810000D01*
X118348000Y-81770000D02*
X110252000Y-81770000D01*
X118352000Y-81730000D02*
X110248000Y-81730000D01*
X118357000Y-81690000D02*
X110243000Y-81690000D01*
X118361000Y-81650000D02*
X110239000Y-81650000D01*
X118365000Y-81610000D02*
X110235000Y-81610000D01*
X118368000Y-81570000D02*
X110232000Y-81570000D01*
X118371000Y-81530000D02*
X110229000Y-81530000D01*
X118374000Y-81490000D02*
X110226000Y-81490000D01*
X118376000Y-81450000D02*
X110224000Y-81450000D01*
X118377000Y-81410000D02*
X110223000Y-81410000D01*
X118379000Y-81370000D02*
X110221000Y-81370000D01*
X118380000Y-81250000D02*
X110220000Y-81250000D01*
X118380000Y-81290000D02*
X110220000Y-81290000D01*
X118380000Y-81330000D02*
X110220000Y-81330000D01*
X118420000Y-81250000D02*
G75*
G02*
X110180000Y-81250000I-4120000J0D01*
G01*
X110180000Y-81250000D02*
G75*
G02*
X118420000Y-81250000I4120000J0D01*
G01*
%TO.C,J2*%
X127590000Y-83110000D02*
X127590000Y-85610000D01*
X127590000Y-85610000D02*
X130090000Y-85610000D01*
X127890000Y-81290000D02*
X127890000Y-85310000D01*
X127890000Y-83000000D02*
X128390000Y-83000000D01*
X127890000Y-83810000D02*
X128890000Y-83810000D01*
X127890000Y-85310000D02*
X140610000Y-85310000D01*
X128390000Y-81790000D02*
X140110000Y-81790000D01*
X128390000Y-83000000D02*
X128390000Y-81790000D01*
X128890000Y-83810000D02*
X128890000Y-85310000D01*
X139610000Y-83810000D02*
X139610000Y-85310000D01*
X140110000Y-81790000D02*
X140110000Y-83000000D01*
X140110000Y-83000000D02*
X140610000Y-83000000D01*
X140610000Y-81290000D02*
X127890000Y-81290000D01*
X140610000Y-83810000D02*
X139610000Y-83810000D01*
X140610000Y-85310000D02*
X140610000Y-81290000D01*
%TO.C,J3*%
X127830000Y-67240000D02*
X127830000Y-74960000D01*
X127830000Y-74960000D02*
X131850000Y-74960000D01*
X128330000Y-67740000D02*
X129540000Y-67740000D01*
X128330000Y-74460000D02*
X128330000Y-67740000D01*
X129540000Y-67740000D02*
X129540000Y-67240000D01*
X129540000Y-74460000D02*
X128330000Y-74460000D01*
X129540000Y-74960000D02*
X129540000Y-74460000D01*
X129650000Y-75260000D02*
X132150000Y-75260000D01*
X130350000Y-67240000D02*
X130350000Y-68240000D01*
X130350000Y-68240000D02*
X131850000Y-68240000D01*
X130350000Y-73960000D02*
X131850000Y-73960000D01*
X130350000Y-74960000D02*
X130350000Y-73960000D01*
X131850000Y-67240000D02*
X127830000Y-67240000D01*
X131850000Y-74960000D02*
X131850000Y-67240000D01*
X132150000Y-75260000D02*
X132150000Y-72760000D01*
%TO.C,J4*%
X145980000Y-66940000D02*
X145980000Y-69440000D01*
X146280000Y-67240000D02*
X146280000Y-79960000D01*
X146280000Y-79960000D02*
X150300000Y-79960000D01*
X147780000Y-67240000D02*
X147780000Y-68240000D01*
X147780000Y-68240000D02*
X146280000Y-68240000D01*
X147780000Y-78960000D02*
X146280000Y-78960000D01*
X147780000Y-79960000D02*
X147780000Y-78960000D01*
X148480000Y-66940000D02*
X145980000Y-66940000D01*
X148590000Y-67240000D02*
X148590000Y-67740000D01*
X148590000Y-67740000D02*
X149800000Y-67740000D01*
X148590000Y-79460000D02*
X148590000Y-79960000D01*
X149800000Y-67740000D02*
X149800000Y-79460000D01*
X149800000Y-79460000D02*
X148590000Y-79460000D01*
X150300000Y-67240000D02*
X146280000Y-67240000D01*
X150300000Y-79960000D02*
X150300000Y-67240000D01*
%TD*%
M02*
